<?xml version="1.0" encoding="UTF-8"?>
<svg version="1.1" xmlns="http://www.w3.org/2000/svg" width="345" height="298">
<path d="M0 0 C0.66 0 1.32 0 2 0 C2.40613525 0.7120459 2.81227051 1.4240918 3.23071289 2.15771484 C15.96818856 24.48355517 28.76595904 46.77284158 41.7331543 68.96630859 C47.8994513 79.52647084 54.00505039 90.12142546 60.10888672 100.71777344 C63.23680148 106.14659942 66.36858448 111.57319281 69.5 117 C70.75001879 119.16665583 72.00001878 121.3333225 73.25 123.5 C74.178125 125.10875 74.178125 125.10875 75.125 126.75 C95.75 162.5 95.75 162.5 97.62524414 165.75048828 C98.87435518 167.91557071 100.12354129 170.08060982 101.37280273 172.24560547 C104.51202309 177.68615706 107.64990563 183.12747216 110.78515625 188.5703125 C116.83055159 199.06232094 122.89110219 209.54481676 129 220 C135.73509435 231.52689859 142.4099447 243.08801431 149.07373047 254.65625 C151.73034016 259.26777425 154.38829557 263.8785214 157.04711914 268.48876953 C158.30312898 270.66664882 159.55884939 272.84469506 160.81420898 275.02294922 C161.39114502 276.02342285 161.96808105 277.02389648 162.5625 278.0546875 C163.40167969 279.51213379 163.40167969 279.51213379 164.2578125 280.99902344 C165.4911778 283.12353665 166.73725904 285.24069131 167.9921875 287.35253906 C168.63414062 288.4350293 169.27609375 289.51751953 169.9375 290.6328125 C170.52402344 291.6139502 171.11054688 292.59508789 171.71484375 293.60595703 C173 296 173 296 173 298 C59.15 298 -54.7 298 -172 298 C-172 282.77182025 -172 282.77182025 -170.8125 275.8125 C-170.6786792 275.01207275 -170.5448584 274.21164551 -170.40698242 273.38696289 C-163.45123079 233.88836882 -141.66689888 200.01367836 -109.0390625 176.76953125 C-75.5157685 153.46124771 -35.69944254 147.11310371 4.04907227 153.61108398 C6 154 6 154 9 155 C7.59448484 164.81507767 5.36744871 174.3985665 3.05883789 184.03076172 C2.43068522 186.6534534 1.80965386 189.27776146 1.18945312 191.90234375 C0.79207931 193.57301487 0.39430778 195.24359145 -0.00390625 196.9140625 C-0.28204918 198.08891708 -0.28204918 198.08891708 -0.56581116 199.2875061 C-1.88430019 204.76860037 -1.88430019 204.76860037 -3 207 C-3.72960937 206.9278125 -4.45921875 206.855625 -5.2109375 206.78125 C-35.20560889 204.11505699 -60.59024935 208.33918698 -84.8125 227.4375 C-94.08724926 235.32976131 -100.96563725 244.48177049 -107 255 C-107 255.66 -107 256.32 -107 257 C-99.74 260.63 -92.48 264.26 -85 268 C-84.34 266.35 -83.68 264.7 -83 263 C-72.65714244 246.26890688 -57.65591756 236.20720409 -38.7421875 231.4296875 C-19.85198345 228.46968402 -2.10940869 233.19434968 16 238 C16.16281464 237.14908279 16.32562927 236.29816559 16.49337769 235.42146301 C18.61528584 224.55495797 21.09025627 213.78656095 23.6328125 203.01171875 C24.07468016 201.13226191 24.51639902 199.25277009 24.95797729 197.37324524 C25.87579517 193.46922982 26.79539545 189.56563992 27.71630859 185.66235352 C28.89777941 180.65403386 30.07467368 175.64465145 31.25027657 170.63495159 C32.15778841 166.76991876 33.06767612 162.90544834 33.97829819 159.04114723 C34.41363057 157.192486 34.84821716 155.34364898 35.28204727 153.49463463 C35.88499276 150.92642791 36.49112873 148.35899529 37.09814453 145.79174805 C37.27685089 145.0276915 37.45555725 144.26363495 37.63967896 143.47642517 C38.88572465 138.2285507 38.88572465 138.2285507 40 136 C39.35748291 135.89042969 38.71496582 135.78085938 38.05297852 135.66796875 C32.90459051 134.76404979 27.80487798 133.75370124 22.71484375 132.5625 C-7.13639367 125.61523897 -36.22604977 123.6135787 -66.14941406 131.41040039 C-66.9947168 131.62946045 -67.84001953 131.84852051 -68.7109375 132.07421875 C-69.44618652 132.27619873 -70.18143555 132.47817871 -70.93896484 132.6862793 C-73.24954535 133.03798457 -74.79223031 132.71112965 -77 132 C-76.48167603 131.11368896 -76.48167603 131.11368896 -75.95288086 130.20947266 C-67.21500517 115.2626159 -58.53305526 100.28476261 -49.89111328 85.28222656 C-46.76319852 79.85340058 -43.63141552 74.42680719 -40.5 69 C-39.24998121 66.83334417 -37.99998122 64.6666775 -36.75 62.5 C-34.25 58.16666667 -31.75 53.83333333 -29.25 49.5 C-28.6302832 48.42572754 -28.01056641 47.35145508 -27.37207031 46.24462891 C-26.13217463 44.09567043 -24.89194471 41.94690477 -23.65136719 39.79833984 C-20.72127426 34.72275234 -17.79463591 29.64526265 -14.87988281 24.56085205 C-13.50303474 22.1595977 -12.12427308 19.75944474 -10.74536133 17.359375 C-9.77303297 15.66513397 -8.8034746 13.96930419 -7.83398438 12.2734375 C-6.94936523 10.73429688 -6.94936523 10.73429688 -6.046875 9.1640625 C-5.52963867 8.26123535 -5.01240234 7.3584082 -4.47949219 6.42822266 C-3.09412911 4.1544898 -1.731269 2.02413513 0 0 Z " fill="#5FA5FA" transform="translate(172,0)"/>
</svg>
